<mxfile host="Electron" modified="2024-06-19T04:56:28.615Z" agent="Mozilla/5.0 (Windows NT 10.0; Win64; x64) AppleWebKit/537.36 (KHTML, like Gecko) draw.io/24.5.3 Chrome/124.0.6367.207 Electron/30.0.6 Safari/537.36" etag="T7F4LrRXje8ytjbwf403" version="24.5.3" type="device">
  <diagram id="C5RBs43oDa-KdzZeNtuy" name="Page-1">
    <mxGraphModel dx="863" dy="505" grid="1" gridSize="10" guides="1" tooltips="1" connect="1" arrows="1" fold="1" page="1" pageScale="1" pageWidth="827" pageHeight="1169" math="0" shadow="0">
      <root>
        <mxCell id="WIyWlLk6GJQsqaUBKTNV-0" />
        <mxCell id="WIyWlLk6GJQsqaUBKTNV-1" parent="WIyWlLk6GJQsqaUBKTNV-0" />
        <mxCell id="frV0e63PWbRPFtxxyzY1-0" value="&lt;font style=&quot;font-size: 20px;&quot;&gt;START&lt;/font&gt;" style="ellipse;whiteSpace=wrap;html=1;" vertex="1" parent="WIyWlLk6GJQsqaUBKTNV-1">
          <mxGeometry x="329" y="40" width="170" height="80" as="geometry" />
        </mxCell>
        <mxCell id="frV0e63PWbRPFtxxyzY1-1" value="&lt;font style=&quot;font-size: 20px;&quot;&gt;Input num1 and num2&lt;/font&gt;" style="shape=parallelogram;perimeter=parallelogramPerimeter;whiteSpace=wrap;html=1;fixedSize=1;" vertex="1" parent="WIyWlLk6GJQsqaUBKTNV-1">
          <mxGeometry x="289" y="190" width="250" height="50" as="geometry" />
        </mxCell>
        <mxCell id="frV0e63PWbRPFtxxyzY1-3" value="&lt;font style=&quot;font-size: 21px;&quot;&gt;sum = num1 + num2&lt;/font&gt;" style="rounded=0;whiteSpace=wrap;html=1;" vertex="1" parent="WIyWlLk6GJQsqaUBKTNV-1">
          <mxGeometry x="289.5" y="320" width="249" height="60" as="geometry" />
        </mxCell>
        <mxCell id="frV0e63PWbRPFtxxyzY1-4" value="&lt;font style=&quot;font-size: 20px;&quot;&gt;print sum&lt;/font&gt;" style="shape=parallelogram;perimeter=parallelogramPerimeter;whiteSpace=wrap;html=1;fixedSize=1;" vertex="1" parent="WIyWlLk6GJQsqaUBKTNV-1">
          <mxGeometry x="289" y="460" width="250" height="50" as="geometry" />
        </mxCell>
        <mxCell id="frV0e63PWbRPFtxxyzY1-5" value="&lt;font style=&quot;font-size: 20px;&quot;&gt;STOP&lt;/font&gt;" style="ellipse;whiteSpace=wrap;html=1;" vertex="1" parent="WIyWlLk6GJQsqaUBKTNV-1">
          <mxGeometry x="329" y="585" width="170" height="80" as="geometry" />
        </mxCell>
        <mxCell id="frV0e63PWbRPFtxxyzY1-6" value="" style="endArrow=classic;html=1;rounded=0;exitDx=0;exitDy=0;entryDx=0;entryDy=0;" edge="1" parent="WIyWlLk6GJQsqaUBKTNV-1" source="frV0e63PWbRPFtxxyzY1-0" target="frV0e63PWbRPFtxxyzY1-1">
          <mxGeometry width="50" height="50" relative="1" as="geometry">
            <mxPoint x="430" y="130" as="sourcePoint" />
            <mxPoint x="380" y="180" as="targetPoint" />
          </mxGeometry>
        </mxCell>
        <mxCell id="frV0e63PWbRPFtxxyzY1-7" value="" style="endArrow=classic;html=1;rounded=0;exitDx=0;exitDy=0;entryDx=0;entryDy=0;" edge="1" parent="WIyWlLk6GJQsqaUBKTNV-1" target="frV0e63PWbRPFtxxyzY1-3">
          <mxGeometry width="50" height="50" relative="1" as="geometry">
            <mxPoint x="414" y="240" as="sourcePoint" />
            <mxPoint x="415" y="310" as="targetPoint" />
          </mxGeometry>
        </mxCell>
        <mxCell id="frV0e63PWbRPFtxxyzY1-8" value="" style="endArrow=classic;html=1;rounded=0;exitDx=0;exitDy=0;entryDx=0;entryDy=0;" edge="1" parent="WIyWlLk6GJQsqaUBKTNV-1">
          <mxGeometry width="50" height="50" relative="1" as="geometry">
            <mxPoint x="413" y="380" as="sourcePoint" />
            <mxPoint x="413" y="460" as="targetPoint" />
          </mxGeometry>
        </mxCell>
        <mxCell id="frV0e63PWbRPFtxxyzY1-9" value="" style="endArrow=classic;html=1;rounded=0;exitDx=0;exitDy=0;entryDx=0;entryDy=0;" edge="1" parent="WIyWlLk6GJQsqaUBKTNV-1" target="frV0e63PWbRPFtxxyzY1-5">
          <mxGeometry width="50" height="50" relative="1" as="geometry">
            <mxPoint x="414" y="510" as="sourcePoint" />
            <mxPoint x="414" y="590" as="targetPoint" />
          </mxGeometry>
        </mxCell>
      </root>
    </mxGraphModel>
  </diagram>
</mxfile>
